# xmcd CD database file
#
# Track frame offsets:
#        150
#        14276
#        27933
#        40026
#        52188
#        72378
#        86624
#        99047
#        113597
#        126808
#        146455
#        161136
#        176357
#        187945
#        210347
#
# Disc length: 3017 seconds
#
# Revision: 0
# Processed by: cddbd v1.5.2PL0 Copyright (c) Steve Scherf et al.
# Submitted via: CUERipper 2.1.2a
#
DISCID=bc0bc70f
DTITLE=Lou Rawls - Portrait of the Blues
DYEAR=1993
DGENRE=
TTITLE0=I Just Want to Make Love to You
TTITLE1=A Lover's Question
TTITLE2=Person to Person
TTITLE3=Since I Met You Baby
TTITLE4=I'm Still in Love With You
TTITLE5=Snap Your Fingers
TTITLE6=Baby, What You Want Me to Do?
TTITLE7=Suffering With the Blues
TTITLE8=Hide nor Hair
TTITLE9=Chains of Love
TTITLE10=My Babe
TTITLE11=I Ain't Got Nothin' but the Blues
TTITLE12=Save Your Love for Me
TTITLE13=Saturday Night Fish Fry
TTITLE14=Sweet Slumber
EXTD=
EXTT0=
EXTT1=
EXTT2=
EXTT3=
EXTT4=
EXTT5=
EXTT6=
EXTT7=
EXTT8=
EXTT9=
EXTT10=
EXTT11=
EXTT12=
EXTT13=
EXTT14=
PLAYORDER=
